<svg viewBox="0 0 24 24" xmlns="http://www.w3.org/2000/svg"><path d="m23.922 13.58v3.912l-3.372 1.228-.078.055.052.037 3.45-1.256.026-.036v-3.997l-.053-.036-.025.092zm-.301-7.962-3.04 1.107v3.912l3.339-1.215v-3.913zm.299 7.839v-3.913l-3.336 1.215v3.913zm-3.45 1.253v-3.91l-3.3 1.2v3.913zm-3.436 5.286v-3.912l-3.313 1.206v3.912zm.136-3.939v3.868l3.314-1.206v-3.869l-3.314 1.206zm2.093 1.882c-.367.134-.663-.074-.663-.463s.296-.814.663-.947c.365-.133.662.075.662.464s-.297.814-.662.946zm-6.038-8.624.365-.132-3.285-1.197-3.323 1.21.102.037 3.184 1.16zm7.282 1.349v-3.913l-3.337 1.214v3.913zm-3.449 1.254v-3.913l-3.302 1.202v3.912zm-3.415-2.672-3.336 1.215v3.913l3.336-1.215zm-6.736 3.919 3.322 1.209v-3.913l-3.322-1.209zm3.433-5.292 3.281 1.193v-3.868l-3.28-1.193zm10.167-5.158-3.317 1.207v3.913l3.317-1.207zm-3.557 1.188-3.226-1.173-3.269 1.19 3.225 1.174zm-1.585.703-1.624.592v3.868l3.317-1.207v-3.868zm-.391 2.778c-.367.134-.662-.074-.662-.464s.295-.813.662-.946c.366-.133.663.074.663.464s-.297.813-.663.946zm-4.745 11.026v-3.914l-3.322-1.209v3.913zm3.449-1.228v-3.913l-3.371 1.227v3.913zm.078-.028 3.3-1.2v-3.914l-3.3 1.2zm-.078 4.063-3.371 1.227v-3.912h-.078v3.912l-3.322-1.209v-3.913l-.053-.058-.025-.06-3.336-1.21v-3.948l.034.013 3.287 1.196.015-.078-3.261-1.187 3.26-1.187v-.109l-2.952-1.074-.307-.112 3.26-1.188v.877l.079-.055v-2.373l3.257 1.185.058-.061-3.139-1.143-.102-.037 3.24-1.179v-.083l-3.368 1.226v.018l-.025.018v1.523l-3.389 1.234v.02l-.025.017v4.007l-3.39 1.233v.019l-.025.018v3.995l.025.037 3.4 1.237.008-.006.007.01 3.4 1.238.008-.006.006.01 3.4 1.237.014-.009.012.01 3.45-1.256.026-.037zm-10.185-11.654 3.257 1.185-3.257 1.187v-2.373zm-.093 10.397-3.322-1.208v-3.913l2.361.86.96.349v3.913zm.015-3.99-3.08-1.12-.182-.066 3.262-1.187v2.374zm3.399 5.231-3.321-1.209v-3.912l3.321 1.209zm16.977-15.767-3.21-1.17v2.338zm-3.404-2.791-3.24-1.18-3.27 1.19 3.247 1.182z"/></svg>